<svg width="1142" height="442" viewBox="0 0 1142 442" fill="none" xmlns="http://www.w3.org/2000/svg">
<path d="M72.25 1H1V74.3333M72.25 1V74.3333M72.25 1H143.5M72.25 74.3333H1M72.25 74.3333V147.667M72.25 74.3333H143.5M1 74.3333V147.667M72.25 147.667H1M72.25 147.667V221M72.25 147.667H143.5M1 147.667V221M72.25 221H1M72.25 221V294.333M72.25 221H143.5M1 221V294.333M72.25 294.333H1M72.25 294.333V367.667M72.25 294.333H143.5M1 294.333V367.667M72.25 367.667H1M72.25 367.667V441M72.25 367.667H143.5M1 367.667V441H72.25M72.25 441H143.5M143.5 1V74.3333M143.5 1H214.75M143.5 74.3333V147.667M143.5 74.3333H214.75M143.5 147.667V221M143.5 147.667H214.75M143.5 221V294.333M143.5 221H214.75M143.5 294.333V367.667M143.5 294.333H214.75M143.5 367.667V441M143.5 367.667H214.75M143.5 441H214.75M214.75 1V74.3333M214.75 1H286M214.75 74.3333V147.667M214.75 74.3333H286M214.75 147.667V221M214.75 147.667H286M214.75 221V294.333M214.75 221H286M214.75 294.333V367.667M214.75 294.333H286M214.75 367.667V441M214.75 367.667H286M214.75 441H286M286 1V74.3333M286 1H357.25M286 74.3333V147.667M286 74.3333H357.25M286 147.667V221M286 147.667H357.25M286 221V294.333M286 221H357.25M286 294.333V367.667M286 294.333H357.25M286 367.667V441M286 367.667H357.25M286 441H357.25M357.25 1V74.3333M357.25 1H428.5M357.25 74.3333V147.667M357.25 74.3333H428.5M357.25 147.667V221M357.25 147.667H428.5M357.25 221V294.333M357.25 221H428.5M357.25 294.333V367.667M357.25 294.333H428.5M357.25 367.667V441M357.25 367.667H428.5M357.25 441H428.5M428.5 1V74.3333M428.5 1H499.75M428.5 74.3333V147.667M428.5 74.3333H499.75M428.5 147.667V221M428.5 147.667H499.75M428.5 221V294.333M428.5 221H499.75M428.5 294.333V367.667M428.5 294.333H499.75M428.5 367.667V441M428.5 367.667H499.75M428.5 441H499.75M499.75 1V74.3333M499.75 1H571M499.75 74.3333V147.667M499.75 74.3333H571M499.75 147.667V221M499.75 147.667H571M499.75 221V294.333M499.75 221H571M499.75 294.333V367.667M499.75 294.333H571M499.75 367.667V441M499.75 367.667H571M499.75 441H571M571 1V74.3333M571 1H642.25M571 74.3333V147.667M571 74.3333H642.25M571 147.667V221M571 147.667H642.25M571 221V294.333M571 221H642.25M571 294.333V367.667M571 294.333H642.25M571 367.667V441M571 367.667H642.25M571 441H642.25M642.25 1V74.3333M642.25 1H713.5M642.25 74.3333V147.667M642.25 74.3333H713.5M642.25 147.667V221M642.25 147.667H713.5M642.25 221V294.333M642.25 221H713.5M642.25 294.333V367.667M642.25 294.333H713.5M642.25 367.667V441M642.25 367.667H713.5M642.25 441H713.5M713.5 1V74.3333M713.5 1H784.75M713.5 74.3333V147.667M713.5 74.3333H784.75M713.5 147.667V221M713.5 147.667H784.75M713.5 221V294.333M713.5 221H784.75M713.5 294.333V367.667M713.5 294.333H784.75M713.5 367.667V441M713.5 367.667H784.75M713.5 441H784.75M784.75 1V74.3333M784.75 1H856M784.75 74.3333V147.667M784.75 74.3333H856M784.75 147.667V221M784.75 147.667H856M784.75 221V294.333M784.75 221H856M784.75 294.333V367.667M784.75 294.333H856M784.75 367.667V441M784.75 367.667H856M784.75 441H856M856 1V74.3333M856 1H927.25M856 74.3333V147.667M856 74.3333H927.25M856 147.667V221M856 147.667H927.25M856 221V294.333M856 221H927.25M856 294.333V367.667M856 294.333H927.25M856 367.667V441M856 367.667H927.25M856 441H927.25M927.25 1V74.3333M927.25 1H998.5M927.25 74.3333V147.667M927.25 74.3333H998.5M927.25 147.667V221M927.25 147.667H998.5M927.25 221V294.333M927.25 221H998.5M927.25 294.333V367.667M927.25 294.333H998.5M927.25 367.667V441M927.25 367.667H998.5M927.25 441H998.5M998.5 1V74.3333M998.5 1H1069.75M998.5 74.3333V147.667M998.5 74.3333H1069.75M998.5 147.667V221M998.5 147.667H1069.75M998.5 221V294.333M998.5 221H1069.75M998.5 294.333V367.667M998.5 294.333H1069.75M998.5 367.667V441M998.5 367.667H1069.75M998.5 441H1069.75M1069.75 1V74.3333M1069.75 1H1141V74.3333M1069.75 74.3333V147.667M1069.75 74.3333H1141M1069.75 147.667V221M1069.75 147.667H1141M1069.75 221V294.333M1069.75 221H1141M1069.75 294.333V367.667M1069.75 294.333H1141M1069.75 367.667V441M1069.75 367.667H1141M1069.75 441H1141V367.667M1141 74.3333V147.667M1141 147.667V221M1141 221V294.333M1141 294.333V367.667" stroke="url(#paint0_radial_119881_1761)" stroke-opacity="0.24"/>
<defs>
<radialGradient id="paint0_radial_119881_1761" cx="0" cy="0" r="1" gradientUnits="userSpaceOnUse" gradientTransform="translate(571 221) rotate(90) scale(220 570)">
<stop stop-color="#717784"/>
<stop offset="1" stop-color="#717784" stop-opacity="0"/>
</radialGradient>
</defs>
</svg>
