<svg width="22" height="24" viewBox="0 0 22 24" fill="none" xmlns="http://www.w3.org/2000/svg">
<path d="M20.6 24H1.39995C1.08169 24 0.776467 23.8736 0.551423 23.6485C0.326379 23.4235 0.199951 23.1183 0.199951 22.8V1.2C0.199951 0.88174 0.326379 0.576515 0.551423 0.351472C0.776467 0.126428 1.08169 0 1.39995 0H20.6C20.9182 0 21.2234 0.126428 21.4485 0.351472C21.6735 0.576515 21.8 0.88174 21.8 1.2V22.8C21.8 23.1183 21.6735 23.4235 21.4485 23.6485C21.2234 23.8736 20.9182 24 20.6 24ZM6.19995 8.4V10.8H15.8V8.4H6.19995ZM6.19995 13.2V15.6H15.8V13.2H6.19995Z" fill="#1DAF61"/>
</svg>
