<svg width="26" height="26" viewBox="0 0 26 26" fill="none" xmlns="http://www.w3.org/2000/svg">
<path d="M0 26C0 23.4539 1.01143 21.0121 2.81177 19.2118C4.61212 17.4114 7.05392 16.4 9.6 16.4C12.1461 16.4 14.5879 17.4114 16.3882 19.2118C18.1886 21.0121 19.2 23.4539 19.2 26H0ZM9.6 15.2C5.622 15.2 2.4 11.978 2.4 7.99999C2.4 4.02199 5.622 0.799988 9.6 0.799988C13.578 0.799988 16.8 4.02199 16.8 7.99999C16.8 11.978 13.578 15.2 9.6 15.2ZM18.4356 17.8796C20.2712 18.3514 21.9111 19.3902 23.122 20.8482C24.3328 22.3062 25.0529 24.109 25.1796 26H21.6C21.6 22.868 20.4 20.0168 18.4356 17.8796ZM16.008 15.1484C17.0136 14.249 17.8178 13.1472 18.3679 11.9153C18.918 10.6834 19.2015 9.34913 19.2 7.99999C19.2026 6.36015 18.7831 4.74723 17.982 3.31639C19.3412 3.58949 20.5638 4.32484 21.4421 5.39742C22.3205 6.47001 22.8003 7.81366 22.8 9.19999C22.8003 10.0549 22.6179 10.9001 22.2649 11.6788C21.912 12.4575 21.3966 13.1518 20.7535 13.715C20.1103 14.2783 19.3542 14.6976 18.5357 14.9448C17.7173 15.192 16.8555 15.2614 16.008 15.1484V15.1484Z" fill="#1DAF61"/>
</svg>
