<svg width="143" height="62" viewBox="0 0 143 62" fill="none" xmlns="http://www.w3.org/2000/svg">
<rect width="62" height="62" rx="31" fill="#E4FFF1"/>
<path d="M24.4475 37.3465L20.962 40.8819C19.8083 42.0381 18.2505 42.6844 16.6287 42.6795C15.0068 42.6746 13.4528 42.0189 12.306 40.8556C11.1592 39.6923 10.5128 38.116 10.5079 36.4709C10.503 34.8257 11.1401 33.2455 12.2799 32.0753L17.486 26.7944C17.4833 26.7014 17.4814 26.6082 17.4814 26.5147C17.4809 25.7282 17.5805 24.945 17.7776 24.1844L11.1398 30.9175C9.69451 32.3941 8.88502 34.3915 8.88868 36.4723C8.89235 38.5531 9.70886 40.5476 11.1594 42.0189C12.6099 43.4902 14.5761 44.3184 16.6274 44.322C18.6787 44.3258 20.6479 43.5046 22.1035 42.0385L25.5889 38.5031L24.4475 37.3465Z" fill="#32B770"/>
<path d="M40.6081 20.9542L37.1227 24.4897L38.2635 25.6469L41.7489 22.1114C42.9031 20.9576 44.4601 20.3134 46.0807 20.3193C47.7011 20.3253 49.2535 20.9809 50.3995 22.1433C51.5453 23.3056 52.1917 24.8803 52.1975 26.5241C52.2033 28.1679 51.5683 29.7473 50.4308 30.9181L45.2207 36.203C45.2471 37.0841 45.1477 37.9644 44.9257 38.8166L51.5716 32.0753C53.0255 30.6005 53.8423 28.6003 53.8423 26.5147C53.8423 24.4291 53.0255 22.429 51.5716 20.9542C50.1177 19.4795 48.1459 18.651 46.0898 18.651C44.0338 18.651 42.062 19.4795 40.6081 20.9542Z" fill="#32B770"/>
<path d="M25.9111 11.5742L41.0951 31.3558C45.0615 36.523 44.0879 43.9272 38.9207 47.8935L36.0751 50.0777L20.8911 30.2961C16.9248 25.1289 17.8984 17.7247 23.0656 13.7584L25.9111 11.5742Z" fill="#32B770"/>
<path d="M70.7054 22.5455H73.6969L78.2565 30.4801H78.444L83.0037 22.5455H85.9952L79.6628 33.1477V40H77.0378V33.1477L70.7054 22.5455ZM91.4029 40.2642C90.1132 40.2642 89.0024 39.9886 88.0705 39.4375C87.1444 38.8807 86.4285 38.0994 85.9228 37.0938C85.4228 36.0824 85.1728 34.8977 85.1728 33.5398C85.1728 32.1989 85.4228 31.017 85.9228 29.9943C86.4285 28.9716 87.133 28.1733 88.0365 27.5994C88.9455 27.0256 90.008 26.7386 91.224 26.7386C91.9626 26.7386 92.6785 26.8608 93.3717 27.1051C94.0649 27.3494 94.687 27.733 95.2382 28.2557C95.7893 28.7784 96.224 29.4574 96.5421 30.2926C96.8603 31.1222 97.0194 32.1307 97.0194 33.3182V34.2216H86.6132V32.3125H94.5222C94.5222 31.642 94.3859 31.0483 94.1132 30.5312C93.8404 30.0085 93.4569 29.5966 92.9626 29.2955C92.474 28.9943 91.9001 28.8438 91.241 28.8438C90.5251 28.8438 89.9001 29.0199 89.366 29.3722C88.8376 29.7187 88.4285 30.1733 88.1387 30.7358C87.8546 31.2926 87.7126 31.8977 87.7126 32.5511V34.0426C87.7126 34.9176 87.866 35.6619 88.1728 36.2756C88.4853 36.8892 88.92 37.358 89.4768 37.6818C90.0336 38 90.6842 38.1591 91.4285 38.1591C91.9115 38.1591 92.3518 38.0909 92.7495 37.9545C93.1472 37.8125 93.491 37.6023 93.7808 37.3239C94.0705 37.0455 94.2921 36.7017 94.4455 36.2926L96.8575 36.7273C96.6643 37.4375 96.3177 38.0597 95.8177 38.5938C95.3234 39.1222 94.7012 39.5341 93.9512 39.8295C93.2069 40.1193 92.3575 40.2642 91.4029 40.2642ZM105.129 40.2642C103.839 40.2642 102.728 39.9886 101.796 39.4375C100.87 38.8807 100.154 38.0994 99.6488 37.0938C99.1488 36.0824 98.8988 34.8977 98.8988 33.5398C98.8988 32.1989 99.1488 31.017 99.6488 29.9943C100.154 28.9716 100.859 28.1733 101.762 27.5994C102.671 27.0256 103.734 26.7386 104.95 26.7386C105.689 26.7386 106.404 26.8608 107.098 27.1051C107.791 27.3494 108.413 27.733 108.964 28.2557C109.515 28.7784 109.95 29.4574 110.268 30.2926C110.586 31.1222 110.745 32.1307 110.745 33.3182V34.2216H100.339V32.3125H108.248C108.248 31.642 108.112 31.0483 107.839 30.5312C107.566 30.0085 107.183 29.5966 106.689 29.2955C106.2 28.9943 105.626 28.8438 104.967 28.8438C104.251 28.8438 103.626 29.0199 103.092 29.3722C102.564 29.7187 102.154 30.1733 101.865 30.7358C101.581 31.2926 101.439 31.8977 101.439 32.5511V34.0426C101.439 34.9176 101.592 35.6619 101.899 36.2756C102.211 36.8892 102.646 37.358 103.203 37.6818C103.76 38 104.41 38.1591 105.154 38.1591C105.637 38.1591 106.078 38.0909 106.475 37.9545C106.873 37.8125 107.217 37.6023 107.507 37.3239C107.796 37.0455 108.018 36.7017 108.171 36.2926L110.583 36.7273C110.39 37.4375 110.044 38.0597 109.544 38.5938C109.049 39.1222 108.427 39.5341 107.677 39.8295C106.933 40.1193 106.083 40.2642 105.129 40.2642ZM119.324 26.9091V28.9545H112.173V26.9091H119.324ZM114.091 23.7727H116.639V36.1562C116.639 36.6506 116.713 37.0227 116.86 37.2727C117.008 37.517 117.199 37.6847 117.432 37.7756C117.67 37.8608 117.929 37.9034 118.207 37.9034C118.412 37.9034 118.591 37.8892 118.744 37.8608C118.897 37.8324 119.017 37.8097 119.102 37.7926L119.562 39.8977C119.414 39.9545 119.204 40.0114 118.932 40.0682C118.659 40.1307 118.318 40.1648 117.909 40.1705C117.238 40.1818 116.613 40.0625 116.034 39.8125C115.454 39.5625 114.985 39.1761 114.628 38.6534C114.27 38.1307 114.091 37.4744 114.091 36.6847V23.7727ZM127.284 40.2642C125.994 40.2642 124.883 39.9886 123.951 39.4375C123.025 38.8807 122.309 38.0994 121.804 37.0938C121.304 36.0824 121.054 34.8977 121.054 33.5398C121.054 32.1989 121.304 31.017 121.804 29.9943C122.309 28.9716 123.014 28.1733 123.917 27.5994C124.826 27.0256 125.889 26.7386 127.105 26.7386C127.844 26.7386 128.559 26.8608 129.253 27.1051C129.946 27.3494 130.568 27.733 131.119 28.2557C131.67 28.7784 132.105 29.4574 132.423 30.2926C132.741 31.1222 132.9 32.1307 132.9 33.3182V34.2216H122.494V32.3125H130.403C130.403 31.642 130.267 31.0483 129.994 30.5312C129.721 30.0085 129.338 29.5966 128.844 29.2955C128.355 28.9943 127.781 28.8438 127.122 28.8438C126.406 28.8438 125.781 29.0199 125.247 29.3722C124.719 29.7187 124.309 30.1733 124.02 30.7358C123.736 31.2926 123.594 31.8977 123.594 32.5511V34.0426C123.594 34.9176 123.747 35.6619 124.054 36.2756C124.366 36.8892 124.801 37.358 125.358 37.6818C125.915 38 126.565 38.1591 127.309 38.1591C127.792 38.1591 128.233 38.0909 128.63 37.9545C129.028 37.8125 129.372 37.6023 129.662 37.3239C129.951 37.0455 130.173 36.7017 130.326 36.2926L132.738 36.7273C132.545 37.4375 132.199 38.0597 131.699 38.5938C131.204 39.1222 130.582 39.5341 129.832 39.8295C129.088 40.1193 128.238 40.2642 127.284 40.2642ZM135.368 40V26.9091H137.831V28.9886H137.967C138.206 28.2841 138.626 27.7301 139.229 27.3267C139.837 26.9176 140.524 26.7131 141.291 26.7131C141.45 26.7131 141.638 26.7187 141.854 26.7301C142.075 26.7415 142.248 26.7557 142.373 26.7727V29.2102C142.271 29.1818 142.089 29.1506 141.828 29.1165C141.567 29.0767 141.305 29.0568 141.044 29.0568C140.442 29.0568 139.905 29.1847 139.433 29.4403C138.967 29.6903 138.598 30.0398 138.325 30.4886C138.052 30.9318 137.916 31.4375 137.916 32.0057V40H135.368Z" fill="#E4FFF1"/>
<!-- <path d="M70.7054 22.5455H73.6969L78.2565 30.4801H78.444L83.0037 22.5455H85.9952L79.6628 33.1477V40H77.0378V33.1477L70.7054 22.5455ZM91.4029 40.2642C90.1132 40.2642 89.0024 39.9886 88.0705 39.4375C87.1444 38.8807 86.4285 38.0994 85.9228 37.0938C85.4228 36.0824 85.1728 34.8977 85.1728 33.5398C85.1728 32.1989 85.4228 31.017 85.9228 29.9943C86.4285 28.9716 87.133 28.1733 88.0365 27.5994C88.9455 27.0256 90.008 26.7386 91.224 26.7386C91.9626 26.7386 92.6785 26.8608 93.3717 27.1051C94.0649 27.3494 94.687 27.733 95.2382 28.2557C95.7893 28.7784 96.224 29.4574 96.5421 30.2926C96.8603 31.1222 97.0194 32.1307 97.0194 33.3182V34.2216H86.6132V32.3125H94.5222C94.5222 31.642 94.3859 31.0483 94.1132 30.5312C93.8404 30.0085 93.4569 29.5966 92.9626 29.2955C92.474 28.9943 91.9001 28.8438 91.241 28.8438C90.5251 28.8438 89.9001 29.0199 89.366 29.3722C88.8376 29.7187 88.4285 30.1733 88.1387 30.7358C87.8546 31.2926 87.7126 31.8977 87.7126 32.5511V34.0426C87.7126 34.9176 87.866 35.6619 88.1728 36.2756C88.4853 36.8892 88.92 37.358 89.4768 37.6818C90.0336 38 90.6842 38.1591 91.4285 38.1591C91.9115 38.1591 92.3518 38.0909 92.7495 37.9545C93.1472 37.8125 93.491 37.6023 93.7808 37.3239C94.0705 37.0455 94.2921 36.7017 94.4455 36.2926L96.8575 36.7273C96.6643 37.4375 96.3177 38.0597 95.8177 38.5938C95.3234 39.1222 94.7012 39.5341 93.9512 39.8295C93.2069 40.1193 92.3575 40.2642 91.4029 40.2642ZM105.129 40.2642C103.839 40.2642 102.728 39.9886 101.796 39.4375C100.87 38.8807 100.154 38.0994 99.6488 37.0938C99.1488 36.0824 98.8988 34.8977 98.8988 33.5398C98.8988 32.1989 99.1488 31.017 99.6488 29.9943C100.154 28.9716 100.859 28.1733 101.762 27.5994C102.671 27.0256 103.734 26.7386 104.95 26.7386C105.689 26.7386 106.404 26.8608 107.098 27.1051C107.791 27.3494 108.413 27.733 108.964 28.2557C109.515 28.7784 109.95 29.4574 110.268 30.2926C110.586 31.1222 110.745 32.1307 110.745 33.3182V34.2216H100.339V32.3125H108.248C108.248 31.642 108.112 31.0483 107.839 30.5312C107.566 30.0085 107.183 29.5966 106.689 29.2955C106.2 28.9943 105.626 28.8438 104.967 28.8438C104.251 28.8438 103.626 29.0199 103.092 29.3722C102.564 29.7187 102.154 30.1733 101.865 30.7358C101.581 31.2926 101.439 31.8977 101.439 32.5511V34.0426C101.439 34.9176 101.592 35.6619 101.899 36.2756C102.211 36.8892 102.646 37.358 103.203 37.6818C103.76 38 104.41 38.1591 105.154 38.1591C105.637 38.1591 106.078 38.0909 106.475 37.9545C106.873 37.8125 107.217 37.6023 107.507 37.3239C107.796 37.0455 108.018 36.7017 108.171 36.2926L110.583 36.7273C110.39 37.4375 110.044 38.0597 109.544 38.5938C109.049 39.1222 108.427 39.5341 107.677 39.8295C106.933 40.1193 106.083 40.2642 105.129 40.2642ZM119.324 26.9091V28.9545H112.173V26.9091H119.324ZM114.091 23.7727H116.639V36.1562C116.639 36.6506 116.713 37.0227 116.86 37.2727C117.008 37.517 117.199 37.6847 117.432 37.7756C117.67 37.8608 117.929 37.9034 118.207 37.9034C118.412 37.9034 118.591 37.8892 118.744 37.8608C118.897 37.8324 119.017 37.8097 119.102 37.7926L119.562 39.8977C119.414 39.9545 119.204 40.0114 118.932 40.0682C118.659 40.1307 118.318 40.1648 117.909 40.1705C117.238 40.1818 116.613 40.0625 116.034 39.8125C115.454 39.5625 114.985 39.1761 114.628 38.6534C114.27 38.1307 114.091 37.4744 114.091 36.6847V23.7727ZM127.284 40.2642C125.994 40.2642 124.883 39.9886 123.951 39.4375C123.025 38.8807 122.309 38.0994 121.804 37.0938C121.304 36.0824 121.054 34.8977 121.054 33.5398C121.054 32.1989 121.304 31.017 121.804 29.9943C122.309 28.9716 123.014 28.1733 123.917 27.5994C124.826 27.0256 125.889 26.7386 127.105 26.7386C127.844 26.7386 128.559 26.8608 129.253 27.1051C129.946 27.3494 130.568 27.733 131.119 28.2557C131.67 28.7784 132.105 29.4574 132.423 30.2926C132.741 31.1222 132.9 32.1307 132.9 33.3182V34.2216H122.494V32.3125H130.403C130.403 31.642 130.267 31.0483 129.994 30.5312C129.721 30.0085 129.338 29.5966 128.844 29.2955C128.355 28.9943 127.781 28.8438 127.122 28.8438C126.406 28.8438 125.781 29.0199 125.247 29.3722C124.719 29.7187 124.309 30.1733 124.02 30.7358C123.736 31.2926 123.594 31.8977 123.594 32.5511V34.0426C123.594 34.9176 123.747 35.6619 124.054 36.2756C124.366 36.8892 124.801 37.358 125.358 37.6818C125.915 38 126.565 38.1591 127.309 38.1591C127.792 38.1591 128.233 38.0909 128.63 37.9545C129.028 37.8125 129.372 37.6023 129.662 37.3239C129.951 37.0455 130.173 36.7017 130.326 36.2926L132.738 36.7273C132.545 37.4375 132.199 38.0597 131.699 38.5938C131.204 39.1222 130.582 39.5341 129.832 39.8295C129.088 40.1193 128.238 40.2642 127.284 40.2642ZM135.368 40V26.9091H137.831V28.9886H137.967C138.206 28.2841 138.626 27.7301 139.229 27.3267C139.837 26.9176 140.524 26.7131 141.291 26.7131C141.45 26.7131 141.638 26.7187 141.854 26.7301C142.075 26.7415 142.248 26.7557 142.373 26.7727V29.2102C142.271 29.1818 142.089 29.1506 141.828 29.1165C141.567 29.0767 141.305 29.0568 141.044 29.0568C140.442 29.0568 139.905 29.1847 139.433 29.4403C138.967 29.6903 138.598 30.0398 138.325 30.4886C138.052 30.9318 137.916 31.4375 137.916 32.0057V40H135.368Z" fill="#0F1B0E"/> -->
</svg>
